<?xml version="1.0" encoding="UTF-8" standalone="no"?>
<!DOCTYPE svg PUBLIC "-//W3C//DTD SVG 20010904//EN"
              "http://www.w3.org/TR/2001/REC-SVG-20010904/DTD/svg10.dtd">

<svg xmlns="http://www.w3.org/2000/svg"
     width="22.6778in" height="13.1in"
     viewBox="0 0 2041 1179">
  <path id="trail-path"
        fill="none" stroke="black" stroke-width="1"
        d="M 1468.00,602.00
           C 1468.00,602.00 1442.00,720.00 1442.00,720.00
             1442.00,720.00 1320.00,654.00 1318.00,654.00
             1316.00,654.00 1254.00,592.00 1254.00,592.00
             1254.00,592.00 1206.00,696.00 1206.00,696.00
             1206.00,696.00 1112.00,792.00 1112.00,792.00
             1112.00,792.00 950.00,808.00 950.00,808.00
             950.00,808.00 924.00,714.00 924.00,714.00
             924.00,714.00 672.00,472.00 712.00,612.00
             844.00,714.00 998.00,646.00 998.00,646.00
             998.00,646.00 776.00,434.00 776.00,434.00" />
</svg>
